<svg width="18" height="18" viewBox="0 0 18 18" xmlns="http://www.w3.org/2000/svg">
  <path d="M17.64 9.2045C17.64 8.5664 17.5827 7.9527 17.4764 7.3636H9V10.8454H13.8436C13.635 11.9704 12.9955 12.9231 12.0368 13.5613V15.8204H14.9455C16.6473 14.2531 17.64 11.9458 17.64 9.2045Z" fill="#4285F4"/>
  <path d="M9 18C11.43 18 13.4673 17.194 14.9455 15.8204L12.0368 13.5613C11.2309 14.1013 10.2 14.4204 9 14.4204C6.65591 14.4204 4.67182 12.8372 3.96409 10.71H0.957275V13.0431C2.42727 15.9622 5.44818 18 9 18Z" fill="#34A853"/>
  <path d="M3.96409 10.71C3.78409 10.17 3.68182 9.5931 3.68182 9C3.68182 8.4068 3.78409 7.8299 3.96409 7.29V4.9568H0.957273C0.349091 6.1681 0 7.5436 0 9C0 10.4563 0.349091 11.8318 0.957273 13.0431L3.96409 10.71Z" fill="#FBBC04"/>
  <path d="M9 3.5795C10.3091 3.5795 11.4859 4.0295 12.4118 4.9132L15.0109 2.3141C13.4632 0.8577 11.4259 0 9 0C5.44818 0 2.42727 2.0377 0.957275 4.9568L3.96409 7.29C4.67182 5.1627 6.65591 3.5795 9 3.5795Z" fill="#EA4335"/>
</svg>
