<svg xmlns="http://www.w3.org/2000/svg" width="24" height="24" viewBox="0 0 24 24" fill="none">
  <path
    d="M3.6 6c0-1.25.95-2.2 2.2-2.2h4.7c.95 0 1.6.65 1.6 1.6v13.4c-2.25-1.25-4.85-1.55-7.05-.6-.95.4-1.45-.1-1.45-1.05V6Z"
    fill="none"
    stroke="#000"
    stroke-width="2"
    stroke-linejoin="round"
  />
  <path
    d="M20.4 6c0-1.25-.95-2.2-2.2-2.2h-4.7c-.95 0-1.6.65-1.6 1.6v13.4c2.25-1.25 4.85-1.55 7.05-.6.95.4 1.45-.1 1.45-1.05V6Z"
    fill="none"
    stroke="#000"
    stroke-width="2"
    stroke-linejoin="round"
  />
  <path d="M12 6.2v12.9" stroke="#000" stroke-width="2" stroke-linecap="round"/>
</svg>
