<svg xmlns="http://www.w3.org/2000/svg" width="24" height="24" viewBox="0 0 24 24" fill="none">
  <path d="M9 12.5c1.9 0 3.5-1.6 3.5-3.5S10.9 5.5 9 5.5 5.5 7.1 5.5 9 7.1 12.5 9 12.5z" stroke="currentColor" stroke-width="2"/>
  <path d="M17 13.5c1.6 0 3-1.4 3-3s-1.4-3-3-3-3 1.4-3 3 1.4 3 3 3z" stroke="currentColor" stroke-width="2"/>
  <path d="M3.5 20c.8-3 3-5 5.5-5s4.7 2 5.5 5" stroke="currentColor" stroke-width="2" stroke-linecap="round"/>
  <path d="M14.5 20c.4-1.8 1.6-3.2 3.2-3.8" stroke="currentColor" stroke-width="2" stroke-linecap="round"/>
</svg>
